<svg width="16" height="12" viewBox="0 0 16 12" fill="none" xmlns="http://www.w3.org/2000/svg">
<path d="M13.1981 1.20141C12.2421 0.762737 11.2169 0.439539 10.1449 0.254431C10.1254 0.250858 10.1059 0.259786 10.0959 0.277643C9.96401 0.512152 9.81796 0.818089 9.71568 1.05855C8.56275 0.885948 7.41574 0.885948 6.28645 1.05855C6.18415 0.812744 6.0328 0.512152 5.90036 0.277643C5.8903 0.260382 5.8708 0.251454 5.85128 0.254431C4.77994 0.438948 3.75473 0.762145 2.79808 1.20141C2.7898 1.20498 2.7827 1.21094 2.77799 1.21867C0.83337 4.1239 0.300656 6.95772 0.561988 9.7564C0.56317 9.77009 0.570856 9.78319 0.581499 9.79151C1.86451 10.7337 3.10732 11.3057 4.32705 11.6849C4.34657 11.6908 4.36725 11.6837 4.37968 11.6676C4.6682 11.2736 4.9254 10.8581 5.14592 10.4212C5.15894 10.3957 5.14651 10.3653 5.11992 10.3552C4.71196 10.2004 4.3235 10.0117 3.94983 9.79747C3.92027 9.78021 3.91791 9.73793 3.9451 9.71769C4.02373 9.65877 4.10239 9.59746 4.17747 9.53556C4.19106 9.52426 4.20999 9.52187 4.22596 9.52901C6.6808 10.6498 9.33846 10.6498 11.7643 9.52901C11.7803 9.52128 11.7992 9.52367 11.8134 9.53497C11.8885 9.59687 11.9672 9.65877 12.0464 9.71769C12.0736 9.73793 12.0718 9.78021 12.0422 9.79747C11.6686 10.0159 11.2801 10.2004 10.8716 10.3546C10.845 10.3647 10.8331 10.3957 10.8462 10.4212C11.0714 10.8575 11.3286 11.273 11.6118 11.667C11.6236 11.6837 11.6449 11.6908 11.6644 11.6849C12.8901 11.3057 14.1329 10.7337 15.4159 9.79151C15.4271 9.78319 15.4342 9.77068 15.4354 9.75699C15.7482 6.52141 14.9116 3.71083 13.2176 1.21926C13.2135 1.21094 13.2064 1.20498 13.1981 1.20141ZM5.51251 8.05229C4.77344 8.05229 4.16446 7.37376 4.16446 6.54046C4.16446 5.70716 4.76163 5.02863 5.51251 5.02863C6.2693 5.02863 6.87238 5.71312 6.86055 6.54046C6.86055 7.37376 6.26338 8.05229 5.51251 8.05229ZM10.4967 8.05229C9.75766 8.05229 9.14868 7.37376 9.14868 6.54046C9.14868 5.70716 9.74583 5.02863 10.4967 5.02863C11.2535 5.02863 11.8566 5.71312 11.8448 6.54046C11.8448 7.37376 11.2535 8.05229 10.4967 8.05229Z" fill="#D7E0CE"/>
</svg>
