<svg width="21" height="20" viewBox="0 0 21 20" fill="none" xmlns="http://www.w3.org/2000/svg">
<path d="M8.45016 10.5164C9.42036 11.0797 9.92111 11.3614 10.4532 11.3614C10.9852 11.3614 11.486 11.0797 12.4562 10.5164L18.7155 6.91726C18.9972 6.76077 19.185 6.4478 19.185 6.13483C19.185 5.82187 18.9972 5.5089 18.7155 5.35241L12.4562 1.75327C11.4547 1.18993 10.9852 0.908257 10.4532 0.908257C9.92111 0.908257 9.42036 1.18993 8.45016 1.75327L3.06709 4.85166C3.0358 4.88296 3.0045 4.88296 2.9732 4.88296C1.15798 5.97835 0 7.91876 0 10.0469C0 10.0782 0 10.0782 0 10.1408C0 10.1721 0 10.2034 0 10.2347C0 12.3629 1.15798 14.3346 2.9732 15.3987C3.0045 15.3987 3.0045 15.43 3.0358 15.43L6.41586 17.3704C8.38756 18.4971 9.35777 19.0604 10.4219 19.0604C11.486 19.0604 12.4875 18.4971 14.4279 17.3704L17.9957 15.3361C18.9659 14.7728 19.4667 14.4911 19.7483 14.0216C20.03 13.5522 20.03 12.9888 20.03 11.8622V9.67138C20.03 9.35841 19.8735 9.07674 19.5918 8.92026C19.3415 8.76377 18.9972 8.76377 18.7468 8.92026L11.4547 13.114C10.9539 13.3957 10.7348 13.5209 10.4532 13.5209C10.1715 13.5209 9.95241 13.3957 9.45166 13.114L4.50675 10.2973C4.25637 10.1408 4.13119 10.0782 4.0373 10.0782C3.81822 10.0469 3.59914 10.1721 3.50525 10.3912C3.47395 10.4851 3.47395 10.6416 3.47395 10.9233C3.47395 11.1423 3.47395 11.2362 3.50525 11.3301C3.53655 11.5492 3.66173 11.737 3.81822 11.8935C3.88081 11.9561 3.9747 12.0186 4.16248 12.1125L9.42036 15.1483C9.92111 15.43 10.1402 15.5865 10.4219 15.5865C10.7035 15.5865 10.9226 15.43 11.4234 15.1483L17.9018 11.424C18.0583 11.3301 18.1522 11.2675 18.2148 11.3301C18.2774 11.3927 18.2774 11.4553 18.2774 11.6431V12.6446C18.2774 12.9263 18.2774 13.0827 18.2148 13.1766C18.1522 13.2705 18.027 13.3644 17.7766 13.5209L12.4562 16.588C11.486 17.1513 10.9852 17.433 10.4532 17.433C9.92111 17.433 9.42036 17.1513 8.45016 16.588L3.44266 13.6461C3.41136 13.6461 3.41136 13.6461 3.41136 13.6148C2.37856 12.9888 1.72133 11.8935 1.72133 10.6729V10.6416V9.73397C1.72133 9.07674 2.06559 8.4508 2.66023 8.10654C3.16098 7.82486 3.78692 7.82486 4.31897 8.10654L8.45016 10.5164Z" fill="#D7E0CE"/>
</svg>
