<svg width="18" height="18" viewBox="0 0 18 18" fill="none" xmlns="http://www.w3.org/2000/svg">
<path d="M17.3637 9.20583C17.3642 10.9545 16.8145 12.6591 15.7926 14.0781C14.7707 15.4971 13.3282 16.5587 11.6695 17.1125C11.247 17.1958 11.097 16.9342 11.097 16.7117C11.097 16.4383 11.107 15.5392 11.107 14.4258C11.1282 14.1431 11.0887 13.8591 10.9911 13.5929C10.8935 13.3268 10.7401 13.0845 10.5412 12.8825C12.3979 12.6758 14.3462 11.9717 14.3462 8.76999C14.3591 7.94223 14.0522 7.14139 13.4895 6.53416C13.7439 5.81513 13.714 5.02612 13.4062 4.32833C13.4062 4.32833 12.7079 4.10416 11.117 5.18249C9.75124 4.80917 8.31031 4.80917 6.94452 5.18249C5.35286 4.10416 4.65286 4.32833 4.65286 4.32833C4.34575 5.02629 4.31595 5.81501 4.56952 6.53416C4.0075 7.14175 3.70102 7.94242 3.71369 8.76999C3.71369 11.9633 5.65869 12.6783 7.50952 12.8883C7.20658 13.1842 7.01897 13.5783 6.98036 14C6.77598 14.1151 6.5508 14.1885 6.31785 14.2159C6.08491 14.2434 5.84883 14.2244 5.62329 14.16C5.39775 14.0956 5.18723 13.9871 5.00392 13.8407C4.8206 13.6944 4.66814 13.5132 4.55536 13.3075C4.42189 13.0773 4.23768 12.8806 4.01674 12.7323C3.79581 12.584 3.54396 12.488 3.28036 12.4517C3.28036 12.4517 2.46619 12.4408 3.22286 12.9583C3.66654 13.2414 3.99434 13.6738 4.14702 14.1775C4.14702 14.1775 4.63536 15.7975 6.95369 15.2942C6.95786 15.99 6.96536 16.5133 6.96536 16.7108C6.96536 16.9317 6.81286 17.1892 6.39619 17.1125C4.94067 16.6275 3.64727 15.7502 2.65852 14.5771C1.66976 13.404 1.02403 11.9808 0.792484 10.4642C0.560934 8.94755 0.75255 7.39645 1.34622 5.98178C1.93989 4.56711 2.91256 3.34379 4.15707 2.4466C5.40157 1.54942 6.8696 1.0132 8.39938 0.897034C9.92916 0.780869 11.4613 1.08927 12.827 1.78824C14.1927 2.48722 15.339 3.54965 16.1395 4.85845C16.9399 6.16726 17.3636 7.67164 17.3637 9.20583Z" fill="#D7E0CE"/>
</svg>
